<svg width="525" height="440" viewBox="0 0 525 440" fill="none" xmlns="http://www.w3.org/2000/svg">
<g clip-path="url(#clip0_1_3)">
<path d="M341.759 435.08L243.411 257.891C243.383 257.457 243.249 257.037 243.02 256.668C242.791 256.299 242.475 255.991 242.098 255.773C241.667 255.526 241.174 255.407 240.678 255.43C240.662 255.429 240.646 255.43 240.63 255.429C240.614 255.43 240.598 255.429 240.582 255.43C239.909 255.399 239.25 255.628 238.743 256.071C238.236 256.514 237.919 257.136 237.86 257.806L133.626 435.08C133.452 435.38 133.339 435.712 133.294 436.056C133.248 436.4 133.271 436.75 133.361 437.085C133.451 437.42 133.606 437.735 133.817 438.01C134.029 438.285 134.292 438.516 134.593 438.69C134.894 438.863 135.226 438.976 135.57 439.021C135.914 439.066 136.264 439.043 136.599 438.954C136.935 438.864 137.249 438.709 137.525 438.497C137.8 438.286 138.031 438.022 138.205 437.722L240.56 263.645L337.18 437.722C337.354 438.022 337.585 438.286 337.86 438.497C338.136 438.709 338.45 438.864 338.786 438.954C339.121 439.043 339.471 439.066 339.815 439.021C340.159 438.976 340.491 438.863 340.792 438.69C341.093 438.516 341.357 438.285 341.568 438.01C341.779 437.735 341.934 437.42 342.024 437.085C342.114 436.75 342.137 436.4 342.091 436.056C342.046 435.712 341.933 435.38 341.759 435.08Z" fill="#544F93"/>
<path d="M224.333 404.679L235.45 402.13L230.902 358.072L214.496 361.833L224.333 404.679Z" fill="#FFB6B6"/>
<path d="M232.928 383.395L217.108 387.021L212.05 377.143L211.763 376.793C209.519 374.041 208.274 370.611 208.23 367.061L195.081 332.305L194.006 331.794C193.174 331.398 192.436 330.83 191.842 330.127C191.247 329.424 190.81 328.603 190.558 327.717C190.307 326.832 190.247 325.903 190.383 324.993C190.52 324.083 190.849 323.212 191.349 322.439L189.957 318.76L150.678 318.832L150.639 318.821L102.405 305.3L107.47 275.132L121.038 283.661C125.509 283.371 202.095 278.672 209.171 295.823C215.471 311.096 224.55 337.19 231.057 356.39C231.382 357.252 231.785 358.082 232.262 358.87C233.274 360.428 233.869 362.22 233.987 364.074C234.064 364.88 234.218 365.678 234.447 366.455C237.152 374.534 233.031 383.182 232.989 383.269L232.928 383.395Z" fill="#4E4958"/>
<path d="M220.578 400.995L224.192 400.167L236.986 391.198L245.866 395.198L245.867 395.197C250.141 394.218 254.629 394.975 258.344 397.302C262.06 399.629 264.698 403.336 265.679 407.607L265.799 408.13L224.396 417.623L220.578 400.995Z" fill="#4E4958"/>
<path d="M56.446 401.985C57.5762 389.692 64.7822 377.384 76.3398 373.024C72.1364 385.775 72.5818 399.6 77.5972 412.054C79.5488 416.85 82.2193 421.982 80.6875 426.927C79.7344 430.005 77.2384 432.416 74.4115 433.965C71.5844 435.513 68.4173 436.309 65.2896 437.091L64.6862 437.623C59.3238 426.502 55.3158 414.278 56.446 401.985Z" fill="#E6E6E6"/>
<path d="M76.4632 373.252C69.9029 381.09 65.9809 390.794 65.2541 400.986C65.0587 403.178 65.2101 405.386 65.7029 407.531C66.2505 409.604 67.3436 411.493 68.8688 413.001C70.2626 414.436 71.8546 415.742 72.8751 417.491C73.3842 418.394 73.6965 419.394 73.7917 420.426C73.8868 421.457 73.7626 422.498 73.4272 423.478C72.6551 425.943 71.0427 427.984 69.3965 429.925C67.5687 432.079 65.6361 434.289 64.9198 437.091C64.833 437.43 64.3109 437.276 64.3975 436.937C65.6438 432.062 70.2477 429.168 72.3456 424.745C73.3244 422.682 73.687 420.311 72.6392 418.2C71.723 416.353 70.0825 415.005 68.6586 413.564C67.1492 412.114 66.0179 410.318 65.3636 408.33C64.7632 406.218 64.5268 404.019 64.6647 401.828C64.8963 396.889 65.9036 392.017 67.6496 387.391C69.613 382.101 72.4676 377.185 76.09 372.856C76.3143 372.588 76.686 372.986 76.4632 373.252Z" fill="white"/>
<path d="M65.2948 397.691C63.6001 397.337 62.0865 396.392 61.0243 395.026C59.9621 393.66 59.4205 391.961 59.4962 390.233C59.4999 390.162 59.5309 390.096 59.5825 390.048C59.6342 390 59.7025 389.973 59.7731 389.975C59.8437 389.976 59.9111 390.005 59.961 390.054C60.0109 390.104 60.0395 390.172 60.0407 390.242C59.9673 391.852 60.4719 393.434 61.4637 394.704C62.4554 395.975 63.8688 396.849 65.4488 397.169C65.7921 397.239 65.6361 397.76 65.2948 397.691Z" fill="white"/>
<path d="M68.0662 412.366C71.0451 410.457 73.1943 407.495 74.0852 404.073C74.1732 403.733 74.6953 403.888 74.6074 404.227C73.6737 407.787 71.4309 410.864 68.3266 412.844C68.0306 413.033 67.7718 412.554 68.0662 412.366Z" fill="white"/>
<path d="M70.1344 382.6C70.7616 382.873 71.4469 382.987 72.1288 382.93C72.8108 382.873 73.468 382.649 74.0414 382.275C74.3349 382.083 74.5934 382.562 74.3018 382.753C73.6663 383.163 72.9402 383.41 72.1869 383.474C71.4336 383.538 70.6761 383.417 69.9804 383.121C69.9125 383.099 69.8557 383.052 69.8215 382.989C69.7873 382.926 69.7783 382.853 69.7963 382.784C69.8171 382.715 69.8642 382.657 69.9275 382.622C69.9909 382.588 70.0652 382.58 70.1344 382.6Z" fill="white"/>
<path d="M112.662 393.751C112.482 393.876 112.303 394.001 112.123 394.131C109.714 395.827 107.447 397.716 105.344 399.779C105.178 399.936 105.014 400.097 104.853 400.259C99.8399 405.283 95.8035 411.194 92.9494 417.69C91.8161 420.277 90.8813 422.945 90.1531 425.673C89.1477 429.441 88.3576 433.605 86.2281 436.729C86.0096 437.057 85.7709 437.372 85.5135 437.671L65.3827 438.317C65.3362 438.296 65.2897 438.279 65.243 438.257L64.4404 438.32C64.4681 438.176 64.4999 438.028 64.5277 437.885C64.5434 437.802 64.5636 437.718 64.5794 437.635C64.5913 437.58 64.6034 437.524 64.611 437.473C64.6149 437.455 64.619 437.436 64.623 437.423C64.6306 437.372 64.643 437.325 64.6508 437.279C64.8264 436.451 65.0082 435.623 65.1961 434.795C65.196 434.79 65.196 434.79 65.2003 434.785C66.5718 428.459 68.6893 422.318 71.5087 416.49C71.5952 416.318 71.6813 416.14 71.777 415.967C73.0863 413.386 74.6045 410.915 76.3166 408.581C77.2581 407.305 78.2637 406.079 79.3294 404.905C82.0889 401.878 85.3077 399.303 88.8679 397.276C95.9656 393.234 104.278 391.507 112.069 393.586C112.268 393.639 112.463 393.693 112.662 393.751Z" fill="#E6E6E6"/>
<path d="M112.625 394.007C102.665 396.319 93.6865 401.707 86.9654 409.408C85.4891 411.04 84.2794 412.894 83.3809 414.903C82.569 416.888 82.3037 419.054 82.6127 421.176C82.8611 423.16 83.345 425.161 83.1064 427.171C82.9689 428.198 82.6158 429.184 82.07 430.065C81.5243 430.947 80.7984 431.702 79.9398 432.284C77.8382 433.787 75.3213 434.446 72.8376 435.006C70.0798 435.626 67.2056 436.228 64.9454 438.034C64.6716 438.253 64.3477 437.815 64.6212 437.597C68.5535 434.454 73.9733 434.913 78.3127 432.645C80.3375 431.586 82.0554 429.911 82.4909 427.595C82.8718 425.569 82.3745 423.506 82.1057 421.499C81.7739 419.433 81.9532 417.318 82.6281 415.337C83.4214 413.29 84.5575 411.392 85.988 409.725C89.1485 405.921 92.8879 402.637 97.0692 399.994C101.825 396.951 107.066 394.743 112.566 393.466C112.907 393.387 112.964 393.929 112.625 394.007Z" fill="white"/>
<path d="M88.9835 406.801C87.8437 405.499 87.2042 403.834 87.1792 402.104C87.1543 400.374 87.7455 398.692 88.8473 397.357C89.0712 397.088 89.5004 397.423 89.2763 397.693C88.2479 398.933 87.6974 400.501 87.7239 402.112C87.7504 403.722 88.3523 405.271 89.4209 406.477C89.6528 406.739 89.2141 407.062 88.9835 406.801Z" fill="white"/>
<path d="M82.3542 420.186C85.8832 420.454 89.3835 419.382 92.1571 417.185C92.4317 416.967 92.7556 417.405 92.4814 417.622C89.5908 419.903 85.946 421.011 82.2742 420.724C81.9242 420.697 82.0061 420.159 82.3542 420.186Z" fill="white"/>
<path d="M101.94 397.663C102.276 398.259 102.755 398.762 103.334 399.127C103.912 399.492 104.572 399.708 105.255 399.755C105.605 399.778 105.523 400.316 105.175 400.293C104.421 400.238 103.692 399.998 103.052 399.596C102.412 399.194 101.88 398.642 101.503 397.987C101.462 397.928 101.445 397.856 101.456 397.786C101.466 397.715 101.503 397.651 101.559 397.607C101.618 397.564 101.69 397.546 101.761 397.557C101.833 397.567 101.897 397.606 101.94 397.663Z" fill="white"/>
<path d="M385.805 401.985C384.674 389.692 377.469 377.384 365.911 373.024C370.114 385.775 369.669 399.6 364.653 412.054C362.702 416.85 360.031 421.982 361.563 426.927C362.516 430.005 365.012 432.416 367.839 433.965C370.666 435.513 373.833 436.309 376.961 437.091L377.564 437.623C382.927 426.502 386.935 414.278 385.805 401.985Z" fill="#E6E6E6"/>
<path d="M365.787 373.252C372.348 381.09 376.27 390.794 376.997 400.986C377.192 403.178 377.041 405.386 376.548 407.531C376 409.604 374.907 411.493 373.382 413.001C371.988 414.436 370.396 415.742 369.376 417.491C368.867 418.394 368.554 419.394 368.459 420.426C368.364 421.457 368.488 422.498 368.823 423.478C369.596 425.943 371.208 427.984 372.854 429.925C374.682 432.079 376.615 434.289 377.331 437.091C377.418 437.43 377.94 437.276 377.853 436.937C376.607 432.062 372.003 429.168 369.905 424.745C368.926 422.682 368.564 420.311 369.611 418.2C370.528 416.353 372.168 415.005 373.592 413.564C375.101 412.114 376.233 410.318 376.887 408.33C377.487 406.218 377.724 404.019 377.586 401.828C377.354 396.889 376.347 392.017 374.601 387.391C372.638 382.101 369.783 377.185 366.161 372.856C365.936 372.588 365.565 372.986 365.787 373.252Z" fill="white"/>
<path d="M376.956 397.691C378.651 397.337 380.164 396.392 381.226 395.026C382.289 393.66 382.83 391.961 382.755 390.232C382.751 390.162 382.72 390.096 382.668 390.048C382.617 390 382.548 389.973 382.478 389.975C382.407 389.976 382.34 390.004 382.29 390.054C382.24 390.104 382.211 390.172 382.21 390.242C382.283 391.852 381.779 393.434 380.787 394.704C379.795 395.975 378.382 396.849 376.802 397.169C376.459 397.239 376.615 397.76 376.956 397.691Z" fill="white"/>
<path d="M374.184 412.366C371.206 410.457 369.056 407.495 368.165 404.073C368.077 403.733 367.555 403.888 367.643 404.227C368.577 407.787 370.82 410.864 373.924 412.844C374.22 413.033 374.479 412.554 374.184 412.366Z" fill="white"/>
<path d="M372.116 382.6C371.489 382.873 370.804 382.987 370.122 382.93C369.44 382.873 368.783 382.649 368.209 382.275C367.916 382.083 367.657 382.562 367.949 382.753C368.584 383.163 369.31 383.41 370.064 383.474C370.817 383.538 371.575 383.417 372.27 383.121C372.338 383.099 372.395 383.052 372.429 382.989C372.463 382.926 372.472 382.853 372.454 382.784C372.434 382.715 372.386 382.657 372.323 382.622C372.26 382.588 372.185 382.58 372.116 382.6Z" fill="white"/>
<path d="M329.588 393.751C329.768 393.876 329.948 394.001 330.128 394.131C332.537 395.827 334.804 397.716 336.907 399.779C337.072 399.936 337.237 400.097 337.397 400.259C342.411 405.283 346.447 411.194 349.301 417.69C350.435 420.277 351.369 422.945 352.098 425.673C353.103 429.441 353.893 433.605 356.023 436.729C356.241 437.057 356.48 437.372 356.737 437.671L376.868 438.317C376.914 438.296 376.961 438.279 377.008 438.257L377.81 438.32C377.783 438.176 377.751 438.028 377.723 437.885C377.707 437.802 377.687 437.718 377.671 437.635C377.659 437.58 377.647 437.524 377.64 437.473C377.636 437.455 377.632 437.436 377.628 437.423C377.62 437.372 377.608 437.325 377.6 437.279C377.424 436.451 377.243 435.623 377.055 434.795C377.055 434.79 377.055 434.79 377.05 434.785C375.679 428.459 373.561 422.318 370.742 416.49C370.656 416.318 370.569 416.14 370.474 415.967C369.164 413.386 367.646 410.915 365.934 408.581C364.993 407.305 363.987 406.079 362.921 404.905C360.162 401.878 356.943 399.303 353.383 397.276C346.285 393.234 337.973 391.507 330.182 393.586C329.983 393.639 329.788 393.693 329.588 393.751Z" fill="#E6E6E6"/>
<path d="M329.625 394.007C339.586 396.319 348.564 401.707 355.285 409.408C356.762 411.04 357.971 412.894 358.87 414.903C359.682 416.888 359.947 419.054 359.638 421.176C359.39 423.16 358.906 425.161 359.144 427.171C359.282 428.198 359.635 429.184 360.181 430.065C360.726 430.947 361.452 431.702 362.311 432.283C364.412 433.787 366.929 434.446 369.413 435.006C372.171 435.626 375.045 436.228 377.305 438.034C377.579 438.253 377.903 437.815 377.629 437.597C373.697 434.454 368.277 434.913 363.938 432.645C361.913 431.586 360.195 429.911 359.76 427.595C359.379 425.569 359.876 423.506 360.145 421.499C360.477 419.433 360.297 417.318 359.623 415.337C358.829 413.29 357.693 411.392 356.263 409.725C353.102 405.921 349.363 402.637 345.181 399.994C340.426 396.951 335.185 394.743 329.685 393.466C329.344 393.387 329.287 393.929 329.625 394.007Z" fill="white"/>
<path d="M353.267 406.801C354.407 405.499 355.047 403.834 355.071 402.104C355.096 400.374 354.505 398.692 353.403 397.357C353.18 397.088 352.75 397.423 352.974 397.693C354.003 398.933 354.553 400.501 354.527 402.112C354.5 403.722 353.898 405.271 352.83 406.477C352.598 406.739 353.037 407.062 353.267 406.801Z" fill="white"/>
<path d="M359.897 420.186C356.367 420.454 352.867 419.382 350.094 417.185C349.819 416.967 349.495 417.405 349.769 417.622C352.66 419.903 356.305 421.011 359.977 420.724C360.326 420.697 360.245 420.159 359.897 420.186Z" fill="white"/>
<path d="M340.31 397.663C339.975 398.259 339.496 398.762 338.917 399.127C338.339 399.492 337.678 399.708 336.996 399.755C336.646 399.778 336.728 400.316 337.076 400.293C337.83 400.238 338.559 399.998 339.199 399.596C339.839 399.194 340.371 398.642 340.748 397.987C340.789 397.928 340.805 397.856 340.795 397.786C340.784 397.715 340.747 397.651 340.691 397.607C340.633 397.564 340.561 397.546 340.489 397.557C340.418 397.567 340.354 397.606 340.31 397.663Z" fill="white"/>
<path d="M525 439.301C525 439.487 524.926 439.664 524.795 439.795C524.664 439.926 524.486 440 524.301 440H0.699321C0.513915 440 0.3361 439.926 0.204998 439.795C0.0738956 439.664 0.000244141 439.487 0.000244141 439.301C0.000244141 439.116 0.0738956 438.938 0.204998 438.807C0.3361 438.676 0.513915 438.603 0.699321 438.603H524.301C524.486 438.603 524.664 438.677 524.795 438.808C524.926 438.939 525 439.116 525 439.301Z" fill="#3F3D56"/>
<path d="M337.267 169.066C338.727 169.066 339.91 167.883 339.91 166.424C339.91 164.965 338.727 163.783 337.267 163.783C335.807 163.783 334.623 164.965 334.623 166.424C334.623 167.883 335.807 169.066 337.267 169.066Z" fill="#956BCF"/>
<path d="M304.164 186.772L339.803 164.398C340.126 164.195 340.486 164.06 340.862 164.001C341.238 163.941 341.622 163.959 341.992 164.052C342.361 164.145 342.707 164.312 343.01 164.542C343.313 164.773 343.566 165.062 343.754 165.393C343.941 165.724 344.06 166.09 344.102 166.468C344.145 166.846 344.11 167.229 344 167.593C343.891 167.958 343.708 168.296 343.464 168.588C343.219 168.88 342.918 169.119 342.579 169.291L305.059 188.35C304.85 188.455 304.609 188.477 304.386 188.409C304.162 188.342 303.973 188.191 303.857 187.988C303.742 187.785 303.71 187.545 303.767 187.319C303.824 187.092 303.966 186.896 304.164 186.772Z" fill="#E4E4E4"/>
<path d="M232.664 234.95C232.384 234.533 232.237 234.04 232.244 233.537C232.252 233.035 232.412 232.546 232.705 232.138C233.308 231.331 234.111 230.694 235.035 230.291C236.942 229.322 238.996 228.673 241.114 228.372C242.724 228.143 244.481 228.07 245.73 227.03C246.971 225.996 247.662 224.063 249.269 223.902C250.823 223.746 252.018 225.445 253.576 225.551C255.497 225.681 256.754 223.435 258.623 222.974C259.874 222.666 261.16 223.21 262.334 223.742L269.376 226.934L272.985 228.571C274.246 229.142 275.668 229.912 275.906 231.275C276.233 233.147 274.149 234.469 272.367 235.133C259.642 239.826 245.66 239.828 232.934 235.138" fill="#BD93F9"/>
<path d="M243.273 269.449C294.373 269.449 335.798 263.535 335.798 256.241C335.798 248.946 294.373 243.032 243.273 243.032C192.173 243.032 150.749 248.946 150.749 256.241C150.749 263.535 192.173 269.449 243.273 269.449Z" fill="#544F93"/>
<path d="M430.966 338.132H367.521C364.601 338.132 362.234 340.497 362.234 343.415C362.234 346.333 364.601 348.699 367.521 348.699H430.966C433.886 348.699 436.254 346.333 436.254 343.415C436.254 340.497 433.886 338.132 430.966 338.132Z" fill="#544F93"/>
<path d="M461.714 243.936L440.759 343.409L446.217 368.869L456.521 416.918V438.515C456.522 438.544 456.52 438.574 456.515 438.603C456.511 439.08 456.424 439.553 456.256 440H447.973C447.806 439.553 447.718 439.08 447.715 438.603C447.71 438.574 447.708 438.544 447.709 438.515V417.845L438.357 374.234L436.465 365.429L432.805 348.364L431.748 343.421V343.415L432.793 338.461L433.598 334.639L453.09 242.128C453.208 241.562 453.437 241.025 453.764 240.547C454.09 240.069 454.507 239.66 454.992 239.343C455.476 239.027 456.019 238.809 456.588 238.702C457.156 238.595 457.741 238.601 458.308 238.719C458.874 238.838 459.412 239.067 459.89 239.394C460.368 239.72 460.776 240.138 461.093 240.622C461.409 241.107 461.627 241.649 461.733 242.218C461.84 242.786 461.833 243.37 461.714 243.936Z" fill="#544F93"/>
<path d="M371.927 343.415V438.515C371.928 438.544 371.926 438.574 371.921 438.603C371.917 439.08 371.83 439.553 371.662 440H363.379C363.212 439.553 363.124 439.08 363.121 438.603C363.116 438.574 363.114 438.544 363.115 438.515V343.415C363.115 342.247 363.579 341.128 364.405 340.302C365.232 339.476 366.352 339.012 367.521 339.012C368.689 339.012 369.81 339.476 370.636 340.302C371.463 341.128 371.927 342.247 371.927 343.415Z" fill="#544F93"/>
<path d="M378.095 327.565H420.392C424.599 327.565 428.633 329.235 431.608 332.208C434.582 335.18 436.254 339.212 436.254 343.415H362.234C362.234 339.212 363.905 335.18 366.879 332.208C369.854 329.235 373.888 327.565 378.095 327.565Z" fill="#544F93"/>
<path d="M441.541 374.235H367.521C366.352 374.235 365.232 373.771 364.405 372.945C363.579 372.119 363.115 370.999 363.115 369.832C363.115 368.664 363.579 367.544 364.405 366.719C365.232 365.893 366.352 365.429 367.521 365.429H441.541C442.709 365.429 443.83 365.893 444.656 366.719C445.482 367.544 445.947 368.664 445.947 369.832C445.947 370.999 445.482 372.119 444.656 372.945C443.83 373.771 442.709 374.235 441.541 374.235Z" fill="#544F93"/>
<path d="M97.2365 348.859H171.897C174.817 348.859 177.184 346.493 177.184 343.575V341.974C177.184 339.056 174.817 336.691 171.897 336.691H97.2365C94.3165 336.691 91.9494 339.056 91.9494 341.974V343.575C91.9494 346.493 94.3165 348.859 97.2365 348.859Z" fill="#544F93"/>
<path d="M96.4676 342.846L95.1162 348.411L90.1581 368.793L88.02 377.598L78.0917 418.444V436.167C78.0943 437.034 77.8365 437.883 77.3516 438.603C76.9704 439.185 76.452 439.665 75.842 440H71.5298C70.9198 439.665 70.4014 439.185 70.0202 438.603C69.5352 437.883 69.2773 437.034 69.2798 436.167V417.387L80.3125 372.01L87.4325 342.705L63.2879 228.086C63.1684 227.521 63.1617 226.937 63.2681 226.369C63.3745 225.8 63.592 225.259 63.908 224.774C64.2241 224.29 64.6326 223.873 65.1102 223.546C65.5877 223.22 66.125 222.991 66.6913 222.872C67.2575 222.753 67.8417 222.747 68.4103 222.854C68.9789 222.961 69.5208 223.179 70.0051 223.495C70.4894 223.811 70.9066 224.22 71.2327 224.698C71.5589 225.175 71.7876 225.712 71.9059 226.278L94.2236 332.197L95.2516 337.081L96.4498 342.775L96.4676 342.846Z" fill="#544F93"/>
<path d="M175.504 342.775V436.167C175.507 437.034 175.249 437.883 174.764 438.603C174.383 439.185 173.864 439.665 173.254 440H168.936C168.329 439.663 167.813 439.183 167.432 438.603C166.948 437.883 166.69 437.034 166.692 436.167V342.775C166.692 341.608 167.157 340.488 167.983 339.662C168.809 338.836 169.93 338.373 171.098 338.373C172.267 338.373 173.388 338.836 174.214 339.662C175.04 340.488 175.504 341.608 175.504 342.775Z" fill="#544F93"/>
<path d="M177.184 342.775H91.9494V340.373C91.9494 338.292 92.3597 336.231 93.1568 334.308C93.9539 332.385 95.1222 330.637 96.5951 329.166C98.068 327.694 99.8165 326.526 101.741 325.73C103.665 324.933 105.728 324.523 107.811 324.523H161.323C165.53 324.523 169.564 326.193 172.539 329.166C175.513 332.138 177.184 336.17 177.184 340.373L177.184 342.775Z" fill="#544F93"/>
<path d="M171.096 377.596H85.8612C84.6926 377.596 83.572 377.133 82.7457 376.307C81.9194 375.481 81.4552 374.361 81.4552 373.194C81.4552 372.026 81.9194 370.906 82.7457 370.08C83.572 369.255 84.6926 368.791 85.8612 368.791H171.096C172.265 368.791 173.385 369.255 174.212 370.08C175.038 370.906 175.502 372.026 175.502 373.194C175.502 374.361 175.038 375.481 174.212 376.307C173.385 377.133 172.265 377.596 171.096 377.596Z" fill="#544F93"/>
<path d="M280.637 416.003L271.376 411.577L284.097 372.898L297.764 379.429L280.637 416.003Z" fill="#9E616A"/>
<path d="M343.394 412.499L333.437 414.954L319.009 376.887L333.706 373.263L343.394 412.499Z" fill="#9E616A"/>
<path d="M305.229 247.885C306.55 250.029 308.657 251.572 311.1 252.184C313.543 252.797 316.13 252.431 318.307 251.164C318.744 250.899 319.16 250.599 319.548 250.265L348.824 267.054L347.553 249.82L319.946 236.519C318.444 235.011 316.483 234.044 314.372 233.769C312.261 233.494 310.118 233.927 308.279 235.001C307.221 235.636 306.3 236.476 305.571 237.472C304.843 238.468 304.321 239.6 304.037 240.801C303.753 242.001 303.712 243.247 303.916 244.463C304.121 245.68 304.567 246.844 305.229 247.885Z" fill="#9E616A"/>
<path d="M336.237 260.732L341.413 263.884L364.655 278.047C366.182 279.001 367.882 279.646 369.658 279.943C371.434 280.241 373.251 280.186 375.006 279.781C376.76 279.376 378.418 278.63 379.884 277.585C381.35 276.539 382.595 275.215 383.549 273.689C385.27 270.856 385.879 267.486 385.258 264.23L374.928 212.658C374.546 210.633 373.732 208.715 372.54 207.034C371.348 205.353 369.807 203.949 368.022 202.918C366.237 201.886 364.251 201.253 362.198 201.06C360.145 200.866 358.075 201.118 356.129 201.798C352.858 202.947 350.148 205.298 348.549 208.373C346.951 211.447 346.585 215.015 347.526 218.35L358.328 254.95L341.771 247.236L336.237 260.732Z" fill="#E5E5E5"/>
<path d="M324.001 401.831L308.067 369.897L308.069 369.824L309.643 311.252C309.662 310.731 309.704 310.208 309.768 309.693C310.046 307.344 310.789 305.075 311.954 303.016C313.118 300.957 314.682 299.151 316.552 297.702C318.344 296.301 320.396 295.271 322.59 294.672C324.784 294.072 327.076 293.915 329.331 294.21L374.895 300.102L376.475 293.645L376.769 293.538L420.426 277.55L420.677 277.959C426.395 287.256 430.392 305.826 431.481 311.296L431.496 311.375C431.519 311.49 431.533 311.56 431.538 311.58C433.785 320.914 424.499 336.377 415.248 338.701C395.762 343.664 378.335 339.793 358.156 335.309C350.92 333.701 343.441 332.039 335.204 330.602L335.449 335.447C335.65 339.175 336.425 342.851 337.747 346.343C339.216 350.642 340.376 354.037 337.923 361.116L336.736 364.541C337.352 366.241 337.564 368.06 337.355 369.856C337.147 371.652 336.524 373.375 335.535 374.889L335.297 375.254L345.805 401.825L324.001 401.831Z" fill="#4E4958"/>
<path d="M297.821 387.709L278.82 385.944L285.551 364.431C286.941 350.384 290.441 336.626 295.934 323.622L305.117 301.877C305.138 301.393 305.179 300.906 305.238 300.429C305.516 298.08 306.258 295.811 307.423 293.752C308.588 291.693 310.151 289.887 312.022 288.439C313.814 287.038 315.866 286.009 318.06 285.409C320.254 284.81 322.545 284.652 324.801 284.946L370.297 290.83L372.278 274.21L415.947 268.371L416.147 268.696C423.78 281.106 428.625 290.821 431.397 299.271C431.536 299.702 431.66 300.141 431.765 300.579C434.028 309.977 428.379 319.504 419.173 321.818C395.713 327.795 367.502 327.629 330.411 321.293L312.46 363.982C310.744 368.059 308.62 371.953 306.119 375.603L297.821 387.709Z" fill="#4E4958"/>
<path d="M364.101 172.2C376.257 172.2 386.111 162.133 386.111 149.715C386.111 137.297 376.257 127.231 364.101 127.231C351.945 127.231 342.09 137.297 342.09 149.715C342.09 162.133 351.945 172.2 364.101 172.2Z" fill="#9E616A"/>
<path d="M370.456 291.615L367.298 280.309L366.521 274.732L361.982 274.884L353.073 254.335L349.613 248.917C348.907 248.175 348.268 247.461 347.695 246.775C344.09 242.703 341.199 238.051 339.145 233.017C337.705 229.399 336.86 225.573 336.642 221.686C335.996 210.205 340.839 198.059 351.449 184.554C351.275 184.076 351.159 183.579 351.103 183.073C350.914 181.433 351.38 179.784 352.401 178.485C353.421 177.186 354.914 176.342 356.554 176.138L366.787 174.99C367.583 174.9 368.389 174.968 369.157 175.192C369.926 175.416 370.643 175.791 371.265 176.294C371.915 176.815 372.455 177.46 372.853 178.191C373.252 178.922 373.5 179.725 373.585 180.554C373.722 181.835 373.47 183.127 372.861 184.263C378.077 184.925 382.991 187.076 387.014 190.459C391.038 193.842 393.999 198.313 395.543 203.335C401.666 214.758 406.546 226.803 410.1 239.265C410.801 241.706 410.489 244.221 410.187 246.653C409.909 248.9 409.621 251.223 410.105 253.539C410.598 255.894 411.784 258.256 413.039 260.757C414.477 263.622 415.964 266.584 416.365 269.604L416.394 269.816L370.456 291.615Z" fill="#E5E5E5"/>
<path opacity="0.2" d="M339.417 232.905C341.462 237.911 344.337 242.536 347.921 246.587C348.534 247.319 349.183 248.038 349.861 248.759L353.343 254.218C366.178 244.605 376.577 206.752 376.577 206.752L362.095 203.937L339.417 232.905Z" fill="black"/>
<path d="M330.649 174.301C331.917 176.477 332.286 179.063 331.675 181.506C331.065 183.95 329.525 186.059 327.382 187.386C326.942 187.648 326.481 187.874 326.004 188.061L327.029 221.777L312.418 212.586L313.684 181.977C313.063 179.941 313.133 177.755 313.885 175.763C314.637 173.77 316.028 172.083 317.841 170.963C318.896 170.325 320.069 169.904 321.291 169.727C322.512 169.549 323.756 169.618 324.95 169.929C326.144 170.24 327.264 170.788 328.243 171.538C329.222 172.289 330.04 173.229 330.649 174.301Z" fill="#9E616A"/>
<path d="M328.313 209.05L312.245 211.333L312.936 244.584C312.976 246.956 313.623 249.278 314.814 251.331C316.005 253.383 317.702 255.096 319.743 256.308C322.236 257.774 325.138 258.391 328.012 258.064C330.886 257.738 333.576 256.488 335.677 254.501L373.612 218.039C376.281 215.508 377.879 212.052 378.076 208.381C378.273 204.71 377.055 201.103 374.672 198.302C373.493 196.907 372.046 195.764 370.416 194.939C368.786 194.114 367.007 193.624 365.184 193.5C363.361 193.375 361.532 193.617 359.805 194.213C358.077 194.808 356.487 195.744 355.129 196.965C354.754 197.3 354.398 197.655 354.061 198.028L329.012 226.824L328.313 209.05Z" fill="#E5E5E5"/>
<path d="M193.922 425.933L205.327 425.933L210.753 381.973L193.921 381.974L193.922 425.933Z" fill="#FFB6B6"/>
<path d="M129.277 172.853C141.848 172.853 152.04 162.669 152.04 150.106C152.04 137.544 141.848 127.36 129.277 127.36C116.705 127.36 106.514 137.544 106.514 150.106C106.514 162.669 116.705 172.853 129.277 172.853Z" fill="#FFB6B6"/>
<path d="M209.05 412.392H192.899L188.782 406.877L187.667 401.68L186.708 400.753C185.407 399.505 184.565 397.854 184.32 396.068C184.075 394.282 184.441 392.466 185.358 390.914L173.653 336.342C170.587 336.073 136.015 332.984 111.983 328.734C105.832 327.646 101.03 324.659 97.7099 319.854C89.5515 308.049 93.0463 288.947 93.0825 288.755L93.1228 288.542L93.3384 288.518L149.473 282.222L149.548 282.258C151.411 283.139 195.253 303.938 202.418 311.097C205.653 314.33 212.871 333.538 214.487 353.959C214.776 357.617 213.735 361.342 212.727 364.945C211.785 368.317 210.81 371.802 211.003 375.098C211.3 380.183 211.581 385.516 211.84 390.951C211.881 391.817 212.534 392.713 213.165 393.58C213.825 394.485 214.448 395.34 214.488 396.235C214.871 404.914 209.195 412.207 209.138 412.28L209.05 412.392Z" fill="#4E4958"/>
<path d="M212.727 210.692C211.504 210.358 210.223 210.296 208.974 210.51C207.724 210.724 206.537 211.21 205.495 211.932C204.454 212.654 203.584 213.596 202.946 214.691C202.308 215.786 201.919 217.007 201.804 218.269L182.891 224.176L183.68 236.537L210.272 227.82C212.406 227.871 214.484 227.139 216.114 225.761C217.743 224.384 218.81 222.457 219.113 220.346C219.415 218.234 218.932 216.085 217.756 214.306C216.579 212.527 214.789 211.241 212.727 210.692Z" fill="#FFB6B6"/>
<path d="M200.387 231.147L186.251 236.493L185.89 237.194C185.023 238.874 183.524 240.141 181.723 240.716C179.921 241.292 177.964 241.129 176.283 240.263L144.511 252.28C144.511 252.28 130.322 238.091 120.22 225.428L123.663 204.267C124.46 199.357 126.155 194.636 128.663 190.339C149.38 194.878 161.273 223.819 161.273 223.819L198.61 216.699L200.387 231.147Z" fill="#E5E5E5"/>
<path d="M126.042 171.637C120.343 173.175 114.061 171.13 109.613 167.252C105.166 163.373 102.384 157.877 100.781 152.2C99.6071 148.042 99.0504 143.427 100.903 139.524C102.756 135.62 107.742 132.987 111.588 134.959C109.215 132.196 110.401 127.626 113.172 125.263C115.944 122.9 119.749 122.222 123.374 121.852C128.634 121.314 134.067 121.254 139.073 122.957C144.078 124.66 148.626 128.383 150.193 133.429C151.793 134.174 153.595 134.367 155.316 133.979C157.038 133.59 158.582 132.642 159.707 131.283C159.997 132.844 159.764 134.457 159.044 135.872C158.324 137.288 157.158 138.427 155.725 139.113L163.394 136.628C164.713 139.418 162.402 142.871 159.447 143.764C156.491 144.658 153.301 143.681 150.496 142.39C147.692 141.1 144.974 139.468 141.928 138.964C138.881 138.461 135.303 139.439 133.894 142.185C133.156 143.623 133.117 145.307 132.689 146.865C132.26 148.423 131.175 150.039 129.563 150.167C128.544 150.247 127.547 149.705 126.531 149.816C125.272 149.953 124.308 151.093 123.973 152.314C123.72 153.558 123.717 154.84 123.963 156.085L125.912 170.965" fill="#4E4958"/>
<path d="M97.8408 322.573C97.8364 322.573 97.8321 322.572 97.8279 322.571L97.6479 322.54L97.5959 322.366C96.9414 320.166 96.1087 317.914 95.3033 315.737C94.1172 312.721 93.1157 309.636 92.3043 306.499C91.6658 303.5 91.223 300.462 90.9789 297.405C90.7542 295.186 90.5218 292.892 90.1268 290.633C89.9514 289.63 90.6161 288.68 91.259 287.761C91.8551 286.909 92.4182 286.105 92.3 285.344C92.1792 284.566 91.3155 283.711 90.4803 282.884C89.5647 281.978 88.618 281.041 88.484 280.055C86.6593 266.6 85.8099 253.031 85.9427 239.454C86.1313 220.668 86.9808 207.864 88.4677 201.396C92.4658 184.003 110.937 180.83 113.829 180.438C114.137 179.618 114.61 178.871 115.22 178.242C115.829 177.613 116.562 177.116 117.372 176.782C118.181 176.448 119.052 176.285 119.927 176.302C120.803 176.318 121.667 176.515 122.463 176.879L135.587 182.883C138.25 184.105 140.632 185.861 142.586 188.042C144.541 190.223 146.025 192.783 146.948 195.561L148.897 201.501L149.874 241.372L144.462 269.449L155.036 285.299C98.6793 316.218 98.0223 322.573 97.8408 322.573Z" fill="#E5E5E5"/>
<path d="M187.785 421.504L191.493 421.504L205.971 415.62L213.73 421.503H213.731C218.116 421.503 222.321 423.244 225.422 426.342C228.523 429.441 230.265 433.643 230.265 438.025V438.562L187.786 438.563L187.785 421.504Z" fill="#4E4958"/>
<path d="M217.463 239.144C216.369 238.503 215.149 238.109 213.887 237.99C212.625 237.871 211.352 238.03 210.158 238.456C208.964 238.882 207.878 239.564 206.976 240.455C206.075 241.345 205.38 242.423 204.94 243.611L185.139 244.382L182.471 253.599L210.621 255.039C212.667 255.645 214.865 255.48 216.798 254.575C218.73 253.67 220.263 252.087 221.107 250.128C221.95 248.169 222.045 245.969 221.373 243.944C220.702 241.92 219.31 240.212 217.463 239.144Z" fill="#FFB6B6"/>
<path d="M201.198 256.033L180.859 255.779L178.284 255.745L136.903 255.224C136.903 255.224 125.666 244.511 115.881 233.481L117.252 223.568C118.59 213.84 123.419 204.928 130.841 198.493C144.856 207.85 152.983 226.372 152.983 226.372L166.61 232.466C176.2 232.894 185.545 235.629 193.851 240.438L198.333 243.032L201.198 256.033Z" fill="#E5E5E5"/>
<path d="M350.66 431.25L343.892 432.919L341.108 426.832L339.591 433.979L321.642 438.406C320.781 438.618 319.876 438.55 319.057 438.211C318.238 437.873 317.549 437.282 317.09 436.524C316.631 435.766 316.427 434.882 316.507 434C316.586 433.118 316.946 432.285 317.534 431.622L329.424 418.195L327.83 411.74L343.129 408.921L350.66 431.25Z" fill="#4E4958"/>
<path d="M278.966 433.337L272.512 430.704L273.847 424.146L268.41 429.031L251.293 422.05C250.473 421.715 249.781 421.127 249.318 420.372C248.856 419.616 248.647 418.733 248.723 417.85C248.798 416.968 249.154 416.133 249.738 415.467C250.322 414.801 251.104 414.339 251.97 414.149L269.492 410.291L272.006 404.135L286.033 410.857L278.966 433.337Z" fill="#4E4958"/>
<path d="M256.491 253.892H251.204C245.519 253.886 240.069 251.626 236.049 247.61C232.029 243.593 229.768 238.146 229.762 232.466V232.172H277.933V232.466C277.927 238.146 275.666 243.593 271.646 247.61C267.626 251.626 262.176 253.886 256.491 253.892Z" fill="#E4E4E4"/>
<path d="M251.204 224.541C251.204 226 248.561 227.182 248.561 227.182C248.561 227.182 245.917 226 245.917 224.541C245.917 223.082 248.561 221.899 248.561 221.899C248.561 221.899 251.204 223.082 251.204 224.541Z" fill="#956BCF"/>
<path d="M267.065 224.541C267.065 226 264.422 227.182 264.422 227.182C264.422 227.182 261.778 226 261.778 224.541C261.778 223.082 264.422 221.899 264.422 221.899C264.422 221.899 267.065 223.082 267.065 224.541Z" fill="#956BCF"/>
<path d="M256.491 229.824C256.491 231.283 253.848 232.466 253.848 232.466C253.848 232.466 251.204 231.283 251.204 229.824C251.204 228.365 253.848 227.182 253.848 227.182C253.848 227.182 256.491 228.365 256.491 229.824Z" fill="#956BCF"/>
<path d="M237.986 218.964C239.446 218.964 240.63 217.781 240.63 216.322C240.63 214.863 239.446 213.681 237.986 213.681C236.526 213.681 235.343 214.863 235.343 216.322C235.343 217.781 236.526 218.964 237.986 218.964Z" fill="#956BCF"/>
<path d="M199.54 210.645L241.233 216.399C241.61 216.451 241.973 216.579 242.299 216.775C242.626 216.971 242.909 217.231 243.132 217.54C243.355 217.848 243.513 218.198 243.597 218.57C243.68 218.941 243.688 219.325 243.619 219.699C243.549 220.073 243.405 220.43 243.194 220.747C242.984 221.064 242.711 221.334 242.392 221.543C242.074 221.752 241.716 221.893 241.341 221.96C240.967 222.027 240.582 222.017 240.211 221.931L199.21 212.428C198.983 212.375 198.784 212.237 198.656 212.042C198.528 211.846 198.48 211.609 198.522 211.379C198.565 211.15 198.694 210.945 198.884 210.808C199.073 210.672 199.308 210.613 199.54 210.645Z" fill="#E4E4E4"/>
<path d="M250.205 79.3746V0H244.917V79.3746C237.694 80.0333 230.977 83.3663 226.086 88.7194C221.195 94.0725 218.483 101.059 218.482 108.308V116.233H236.987C236.987 119.035 238.101 121.723 240.084 123.705C242.067 125.686 244.757 126.799 247.561 126.799C250.365 126.799 253.055 125.686 255.038 123.705C257.021 121.723 258.135 119.035 258.135 116.233H276.64V108.308C276.639 101.059 273.927 94.0725 269.036 88.7194C264.145 83.3663 257.428 80.0333 250.205 79.3746Z" fill="#BCBCBC"/>
<path d="M318.276 59.531V0H314.311V59.531C308.893 60.025 303.856 62.5247 300.187 66.5396C296.519 70.5544 294.485 75.7944 294.484 81.2309V87.1746H308.363C308.363 89.2765 309.198 91.2922 310.686 92.7784C312.173 94.2646 314.19 95.0996 316.294 95.0996C318.397 95.0996 320.414 94.2646 321.901 92.7784C323.389 91.2922 324.224 89.2765 324.224 87.1746H338.103V81.2309C338.102 75.7944 336.068 70.5544 332.4 66.5396C328.732 62.5247 323.694 60.025 318.276 59.531Z" fill="#BCBCBC"/>
<path d="M184.336 59.531V0H180.37V59.531C174.952 60.025 169.915 62.5247 166.247 66.5396C162.578 70.5544 160.544 75.7944 160.544 81.2309V87.1746H174.422C174.422 89.2765 175.258 91.2922 176.745 92.7784C178.233 94.2646 180.25 95.0996 182.353 95.0996C184.456 95.0996 186.474 94.2646 187.961 92.7784C189.448 91.2922 190.284 89.2765 190.284 87.1746H204.162V81.2309C204.162 75.7944 202.128 70.5544 198.459 66.5396C194.791 62.5247 189.754 60.025 184.336 59.531Z" fill="#BCBCBC"/>
<path d="M422.999 139.964C419.257 135.604 417.478 129.82 414.488 124.869C411.497 119.918 406.292 115.487 400.793 116.639C397.003 117.433 394.074 120.776 392.591 124.502C391.108 128.228 390.83 132.337 390.57 136.363C390.662 128.09 385.208 120.07 377.694 117.43C370.181 114.79 361.189 117.735 356.468 124.381C354.408 122.473 351.718 121.386 348.91 121.328C346.101 121.269 343.369 122.241 341.23 124.062C337.007 127.833 336.073 135.012 339.178 139.822C342.284 144.633 349.01 146.425 353.945 143.757L355.69 145.361C354.708 148.794 356.613 152.849 359.815 154.141C362.411 155.189 366.076 155.014 367.048 157.737C367.727 159.639 366.458 161.67 365.108 163.132C363.758 164.594 362.156 166.103 361.994 168.126C361.749 171.178 364.905 173.316 367.774 173.96C374.693 175.513 382.37 172.312 386.358 166.21C386.434 166.092 386.518 165.975 386.608 165.857C388.846 162.998 390.476 159.713 391.4 156.203C392.324 152.693 392.522 149.032 391.982 145.442C391.758 144.032 391.984 142.983 392.957 142.649C397.162 141.206 408.945 144.236 412.511 146.974C416.077 149.712 418.932 153.335 422.367 156.25C425.802 159.165 430.179 161.414 434.54 160.62C438.033 159.984 441.004 157.45 443.003 154.394C445.002 151.337 446.152 147.774 447.182 144.234C439.458 148.692 428.887 146.826 422.999 139.964Z" fill="#4E4958"/>
</g>
<defs>
<clipPath id="clip0_1_3">
<rect width="525" height="440" fill="white"/>
</clipPath>
</defs>
</svg>
